<svg width="186" height="158" viewBox="0 0 186 158" fill="none" xmlns="http://www.w3.org/2000/svg">
<path d="M96.6985 67.7858C96.5583 67.785 96.4204 67.7505 96.2963 67.6853L65.0066 51.1679C64.8135 51.0638 64.6673 50.89 64.5979 50.6818C64.5285 50.4736 64.5411 50.2468 64.6332 50.0476L78.2062 18.9375C78.2543 18.8279 78.3243 18.7292 78.412 18.6477C78.4997 18.5662 78.6032 18.5035 78.7161 18.4635C78.8327 18.4202 78.9574 18.403 79.0815 18.4129C79.2055 18.4228 79.3259 18.4597 79.4342 18.521L110.724 35.0384C110.918 35.1413 111.067 35.3142 111.139 35.5221C111.21 35.73 111.201 35.9575 111.112 36.1587L97.5387 67.2616C97.4917 67.372 97.4221 67.4712 97.3342 67.5529C97.2464 67.6345 97.1423 67.6968 97.0288 67.7356C96.9236 67.7759 96.8109 67.7931 96.6985 67.7858ZM66.5363 50.0045L96.2748 65.7104L109.158 36.2017L79.4127 20.4959L66.5363 50.0045Z" fill="white" stroke="white" stroke-miterlimit="10"/>
<path d="M110.271 36.6757C110.062 36.671 109.861 36.5908 109.706 36.4498C109.551 36.3088 109.453 36.1166 109.428 35.9085C109.404 35.7005 109.455 35.4906 109.573 35.3175C109.691 35.1444 109.868 35.0198 110.07 34.9665L125.87 31.0742L96.8277 15.7274L79.1182 20.1081C79.0074 20.1354 78.8923 20.1407 78.7795 20.1236C78.6666 20.1064 78.5583 20.0672 78.4606 20.0082C78.3629 19.9492 78.2778 19.8715 78.2101 19.7796C78.1424 19.6877 78.0935 19.5833 78.0662 19.4725C78.0388 19.3617 78.0335 19.2466 78.0507 19.1338C78.0678 19.0209 78.107 18.9126 78.166 18.8149C78.2251 18.7172 78.3027 18.6321 78.3946 18.5644C78.4866 18.4967 78.5909 18.4478 78.7017 18.4204L96.7344 13.9823C96.9406 13.9326 97.158 13.9607 97.3448 14.0613L128.713 30.6218C128.87 30.7037 128.999 30.8317 129.081 30.9886C129.163 31.1454 129.196 31.3237 129.174 31.4995C129.152 31.6753 129.077 31.8402 128.959 31.9721C128.84 32.104 128.685 32.1966 128.512 32.2376L110.48 36.6255C110.412 36.6498 110.342 36.6667 110.271 36.6757Z" fill="white" stroke="white" stroke-miterlimit="10"/>
<path d="M96.6985 67.7858C96.486 67.7897 96.2794 67.7156 96.1178 67.5775C95.9563 67.4394 95.851 67.2469 95.8218 67.0364C95.7926 66.8259 95.8416 66.6119 95.9594 66.4351C96.0773 66.2582 96.2559 66.1307 96.4615 66.0767L111.191 61.9186L127.536 30.9665C127.644 30.7625 127.829 30.6096 128.049 30.541C128.27 30.4724 128.508 30.4937 128.713 30.6002C128.815 30.6538 128.904 30.7268 128.977 30.8151C129.05 30.9033 129.104 31.0051 129.138 31.1145C129.171 31.2239 129.182 31.3389 129.171 31.4527C129.16 31.5666 129.126 31.6771 129.073 31.778L112.555 63.0604C112.501 63.1647 112.425 63.2568 112.334 63.3309C112.243 63.405 112.137 63.4596 112.024 63.4913L96.9426 67.7499C96.8633 67.773 96.7811 67.7851 96.6985 67.7858Z" fill="white" stroke="white" stroke-miterlimit="10"/>
<path d="M97.4964 23.0885C97.9738 22.1834 97.6271 21.0627 96.722 20.5853C95.8169 20.1079 94.6962 20.4546 94.2188 21.3597C93.7414 22.2647 94.0881 23.3855 94.9932 23.8629C95.8983 24.3403 97.019 23.9936 97.4964 23.0885Z" fill="white" stroke="white" stroke-miterlimit="10"/>
<path d="M95.8582 24.9484H95.808C95.086 24.9333 94.3994 24.6334 93.8976 24.1142C93.3958 23.5949 93.1196 22.8984 93.1293 22.1763C93.1378 21.6385 93.305 21.1152 93.61 20.6721C93.915 20.2291 94.3441 19.886 94.8434 19.686C95.3428 19.4861 95.8901 19.4382 96.4166 19.5483C96.9431 19.6584 97.4253 19.9216 97.8026 20.3049C98.18 20.6883 98.4356 21.1745 98.5375 21.7027C98.6393 22.2308 98.5828 22.7773 98.3751 23.2735C98.1673 23.7696 97.8176 24.1933 97.3698 24.4913C96.922 24.7893 96.3961 24.9483 95.8582 24.9484ZM95.8582 23.2105C96.1131 23.2106 96.358 23.1119 96.5415 22.9351C96.725 22.7583 96.8328 22.5172 96.8421 22.2625C96.8474 22.13 96.8253 21.9978 96.7771 21.8742C96.7289 21.7506 96.6557 21.6383 96.562 21.5444C96.4692 21.4479 96.3575 21.3713 96.2341 21.3195C96.1106 21.2676 95.9778 21.2415 95.8439 21.2428C95.7112 21.2365 95.5788 21.2583 95.455 21.3065C95.3313 21.3548 95.2191 21.4285 95.1257 21.5228C94.9845 21.6579 94.8867 21.832 94.8448 22.0229C94.8029 22.2137 94.8187 22.4128 94.8904 22.5946C94.962 22.7764 95.0862 22.9328 95.2471 23.0437C95.4079 23.1547 95.5982 23.2153 95.7936 23.2177L95.8582 23.2105Z" fill="white" stroke="white" stroke-miterlimit="10"/>
<path d="M110.997 51.089C110.629 51.0832 110.271 50.9684 109.968 50.7589C109.665 50.5495 109.431 50.2549 109.296 49.9125C109.161 49.5701 109.13 49.1953 109.208 48.8354C109.286 48.4756 109.469 48.147 109.734 47.8913C109.999 47.6355 110.333 47.4641 110.696 47.3988C111.058 47.3334 111.431 47.377 111.769 47.5241C112.106 47.6712 112.393 47.9151 112.591 48.225C112.79 48.5349 112.893 48.8968 112.885 49.2649C112.874 49.7563 112.67 50.2235 112.316 50.565C111.962 50.9065 111.488 51.0948 110.997 51.089Z" fill="white" stroke="white" stroke-miterlimit="10"/>
<path d="M111.033 51.9579H110.982C110.251 51.9513 109.553 51.6553 109.039 51.1348C108.526 50.6143 108.239 49.9117 108.243 49.1806C108.246 48.4495 108.539 47.7494 109.057 47.2337C109.575 46.7179 110.276 46.4283 111.008 46.4283C111.739 46.4283 112.44 46.7179 112.958 47.2337C113.476 47.7494 113.769 48.4495 113.772 49.1806C113.776 49.9117 113.489 50.6143 112.976 51.1348C112.462 51.6553 111.764 51.9513 111.033 51.9579ZM111.033 48.2451C110.785 48.2662 110.555 48.3794 110.387 48.5622C110.219 48.7451 110.126 48.9843 110.126 49.2325C110.126 49.4808 110.219 49.72 110.387 49.9028C110.555 50.0857 110.785 50.1989 111.033 50.22C111.166 50.2286 111.299 50.2079 111.423 50.1595C111.547 50.1112 111.659 50.0362 111.751 49.9399C111.847 49.847 111.924 49.7354 111.976 49.612C112.028 49.4885 112.054 49.3557 112.052 49.2218C112.058 49.0892 112.036 48.957 111.987 48.8334C111.939 48.7098 111.866 48.5975 111.772 48.5036C111.679 48.4071 111.568 48.3306 111.444 48.2787C111.321 48.2268 111.188 48.2007 111.054 48.202L111.033 48.2451Z" fill="white" stroke="white" stroke-miterlimit="10"/>
<path d="M105.941 59.9294C105.573 59.9236 105.215 59.8087 104.912 59.5993C104.609 59.3899 104.375 59.0953 104.24 58.7529C104.105 58.4105 104.074 58.0356 104.152 57.6758C104.23 57.316 104.413 56.9874 104.678 56.7317C104.943 56.4759 105.277 56.3045 105.64 56.2391C106.002 56.1738 106.376 56.2174 106.713 56.3645C107.051 56.5116 107.337 56.7555 107.536 57.0654C107.734 57.3753 107.837 57.7372 107.83 58.1053C107.826 58.3492 107.774 58.59 107.677 58.8138C107.58 59.0377 107.44 59.2402 107.264 59.4096C107.089 59.5791 106.882 59.7123 106.654 59.8015C106.427 59.8907 106.185 59.9341 105.941 59.9294Z" fill="white" stroke="white" stroke-miterlimit="10"/>
<path d="M105.977 60.7983H105.927C105.19 60.7917 104.486 60.4934 103.968 59.9689C103.451 59.4444 103.162 58.7362 103.165 57.9994C103.169 57.2626 103.464 56.5571 103.986 56.0373C104.508 55.5174 105.215 55.2256 105.952 55.2256C106.689 55.2256 107.395 55.5174 107.918 56.0373C108.44 56.5571 108.735 57.2626 108.738 57.9994C108.741 58.7362 108.453 59.4444 107.935 59.9689C107.418 60.4934 106.714 60.7917 105.977 60.7983ZM105.977 59.0604C106.11 59.0666 106.242 59.0449 106.366 58.9966C106.489 58.9484 106.602 58.8747 106.695 58.7803C106.792 58.6874 106.868 58.5758 106.92 58.4523C106.972 58.3289 106.998 58.1961 106.997 58.0622C107.001 57.8659 106.947 57.6728 106.841 57.5074C106.735 57.3419 106.583 57.2116 106.403 57.1328C106.223 57.0541 106.024 57.0306 105.831 57.0652C105.638 57.0998 105.459 57.1911 105.318 57.3273C105.177 57.4636 105.079 57.6387 105.037 57.8306C104.996 58.0224 105.012 58.2223 105.084 58.4049C105.156 58.5874 105.281 58.7445 105.442 58.8561C105.604 58.9676 105.795 59.0288 105.991 59.0317L105.977 59.0604Z" fill="white" stroke="white" stroke-miterlimit="10"/>
<path d="M116.189 42.6507C115.821 42.6464 115.462 42.5327 115.158 42.3241C114.854 42.1156 114.619 41.8215 114.483 41.4791C114.347 41.1368 114.315 40.7617 114.392 40.4014C114.469 40.0411 114.652 39.7119 114.916 39.4554C115.181 39.1989 115.515 39.0268 115.878 38.9609C116.241 38.8949 116.614 38.9382 116.952 39.0851C117.29 39.232 117.577 39.4759 117.776 39.786C117.975 40.096 118.078 40.4582 118.07 40.8266C118.067 41.07 118.015 41.3102 117.919 41.5335C117.822 41.7569 117.682 41.959 117.508 42.1284C117.333 42.2978 117.126 42.4311 116.9 42.5207C116.674 42.6104 116.432 42.6545 116.189 42.6507Z" fill="white" stroke="white" stroke-miterlimit="10"/>
<path d="M116.218 43.5197H116.175C115.634 43.5125 115.108 43.3451 114.663 43.0386C114.218 42.7322 113.874 42.3006 113.675 41.7984C113.475 41.2963 113.429 40.7462 113.543 40.2179C113.656 39.6897 113.924 39.207 114.312 38.831C114.7 38.455 115.191 38.2027 115.723 38.1061C116.254 38.0094 116.803 38.0727 117.298 38.2879C117.794 38.5032 118.214 38.8608 118.506 39.3153C118.799 39.7698 118.949 40.3008 118.939 40.841C118.937 41.1985 118.862 41.5517 118.72 41.8799C118.578 42.208 118.372 42.5043 118.114 42.7513C117.606 43.2455 116.926 43.5213 116.218 43.5197ZM116.218 41.7818C116.347 41.7837 116.475 41.7601 116.595 41.7124C116.715 41.6647 116.825 41.5938 116.918 41.5038C117.01 41.4138 117.084 41.3064 117.136 41.1877C117.187 41.0691 117.214 40.9415 117.216 40.8123C117.221 40.6803 117.2 40.5487 117.153 40.4252C117.106 40.3018 117.035 40.1892 116.943 40.0941C116.85 39.9976 116.739 39.9211 116.615 39.8692C116.492 39.8174 116.359 39.7913 116.225 39.7925C115.978 39.8136 115.747 39.9268 115.579 40.1096C115.411 40.2925 115.318 40.5317 115.318 40.78C115.318 41.0282 115.411 41.2674 115.579 41.4503C115.747 41.6331 115.978 41.7463 116.225 41.7674L116.218 41.7818Z" fill="white" stroke="white" stroke-miterlimit="10"/>
<path d="M113.575 31.3543C113.207 31.3485 112.849 31.2337 112.546 31.0242C112.243 30.8148 112.009 30.5202 111.874 30.1778C111.739 29.8354 111.708 29.4606 111.786 29.1008C111.864 28.741 112.047 28.4124 112.312 28.1566C112.577 27.9009 112.911 27.7294 113.274 27.6641C113.636 27.5987 114.01 27.6423 114.347 27.7894C114.685 27.9365 114.971 28.1804 115.17 28.4903C115.368 28.8002 115.471 29.1621 115.464 29.5302C115.46 29.7741 115.408 30.0149 115.311 30.2388C115.214 30.4626 115.074 30.6651 114.898 30.8346C114.723 31.0041 114.515 31.1372 114.288 31.2264C114.061 31.3156 113.819 31.3591 113.575 31.3543Z" fill="white" stroke="white" stroke-miterlimit="10"/>
<path d="M113.611 32.2233H113.561C113.111 32.2176 112.669 32.101 112.276 31.8836C111.882 31.6662 111.548 31.3549 111.304 30.9774C111.059 30.5998 110.912 30.1677 110.875 29.7195C110.838 29.2713 110.912 28.8208 111.091 28.4083C111.27 27.9957 111.548 27.6337 111.901 27.3546C112.254 27.0755 112.67 26.8879 113.113 26.8085C113.555 26.729 114.011 26.7602 114.438 26.8993C114.866 27.0384 115.253 27.281 115.564 27.6056C115.815 27.8612 116.012 28.1644 116.144 28.4974C116.276 28.8304 116.34 29.1865 116.333 29.5446C116.321 30.2589 116.03 30.9402 115.52 31.4414C115.011 31.9425 114.325 32.2234 113.611 32.2233ZM113.611 30.4853C113.743 30.4921 113.875 30.4713 113.999 30.4243C114.122 30.3773 114.235 30.3052 114.329 30.2125C114.424 30.1186 114.5 30.0068 114.552 29.8835C114.603 29.7603 114.63 29.628 114.631 29.4943C114.634 29.362 114.611 29.2302 114.563 29.1069C114.515 28.9835 114.443 28.8711 114.35 28.7762C114.258 28.6799 114.146 28.604 114.022 28.5533C113.899 28.5026 113.766 28.4782 113.632 28.4817C113.503 28.4794 113.375 28.5025 113.254 28.5497C113.134 28.597 113.024 28.6675 112.931 28.7572C112.838 28.8469 112.764 28.954 112.712 29.0725C112.661 29.191 112.633 29.3184 112.631 29.4476C112.628 29.5768 112.651 29.7052 112.699 29.8255C112.746 29.9458 112.816 30.0556 112.906 30.1486C112.996 30.2416 113.103 30.3161 113.221 30.3677C113.34 30.4193 113.467 30.4471 113.596 30.4494L113.611 30.4853Z" fill="white" stroke="white" stroke-miterlimit="10"/>
<path d="M97.3951 42.3706C97.027 42.3649 96.6688 42.25 96.3661 42.0406C96.0633 41.8312 95.8295 41.5366 95.6942 41.1942C95.559 40.8518 95.5284 40.4769 95.6063 40.1171C95.6842 39.7573 95.8672 39.4287 96.132 39.173C96.3968 38.9172 96.7316 38.7458 97.0939 38.6804C97.4562 38.6151 97.8298 38.6587 98.1672 38.8058C98.5047 38.9529 98.791 39.1968 98.9898 39.5067C99.1885 39.8166 99.2909 40.1785 99.2838 40.5466C99.2744 41.0386 99.0703 41.5069 98.7163 41.8488C98.3623 42.1907 97.8872 42.3783 97.3951 42.3706Z" fill="white" stroke="white" stroke-miterlimit="10"/>
<path d="M97.431 43.2683H97.3807C96.7511 43.2566 96.145 43.027 95.6658 42.6185C95.1865 42.2101 94.8637 41.6481 94.7524 41.0283C94.641 40.4085 94.748 39.7693 95.0551 39.2196C95.3622 38.6699 95.8505 38.2436 96.4366 38.0135C97.0228 37.7834 97.6706 37.7636 98.2697 37.9576C98.8687 38.1516 99.382 38.5473 99.7221 39.0773C100.062 39.6072 100.208 40.2388 100.134 40.8642C100.061 41.4896 99.7732 42.0702 99.3197 42.5071C98.8144 42.9989 98.1361 43.2723 97.431 43.2683ZM97.431 39.5627C97.2991 39.5577 97.1675 39.5793 97.0442 39.6262C96.9208 39.673 96.8081 39.7443 96.7128 39.8356C96.6176 39.9295 96.542 40.0413 96.4902 40.1645C96.4384 40.2878 96.4116 40.4201 96.4112 40.5537C96.4073 40.8154 96.5071 41.0679 96.6887 41.2563C96.8704 41.4446 97.1191 41.5535 97.3807 41.5591C97.5128 41.5659 97.6448 41.5451 97.7684 41.4981C97.892 41.4511 98.0046 41.379 98.0988 41.2863C98.2401 41.1512 98.3379 40.9771 98.3798 40.7862C98.4217 40.5954 98.4058 40.3963 98.3342 40.2145C98.2625 40.0327 98.1384 39.8763 97.9775 39.7654C97.8166 39.6544 97.6264 39.5938 97.431 39.5914V39.5627Z" fill="white" stroke="white" stroke-miterlimit="10"/>
<path d="M89.7684 38.3562C89.4023 38.3491 89.0466 38.2337 88.7461 38.0245C88.4456 37.8154 88.2138 37.5219 88.0799 37.1811C87.9461 36.8403 87.9162 36.4675 87.994 36.1098C88.0719 35.752 88.254 35.4254 88.5173 35.171C88.7807 34.9167 89.1135 34.7461 89.4737 34.6807C89.834 34.6153 90.2055 34.6582 90.5414 34.8038C90.8774 34.9494 91.1626 35.1913 91.3612 35.4989C91.5597 35.8065 91.6627 36.1661 91.6571 36.5321C91.6543 36.7764 91.6031 37.0176 91.5064 37.2419C91.4097 37.4662 91.2694 37.669 91.0937 37.8387C90.918 38.0083 90.7104 38.1415 90.4829 38.2303C90.2554 38.3191 90.0125 38.3619 89.7684 38.3562Z" fill="white" stroke="white" stroke-miterlimit="10"/>
<path d="M89.7684 39.2252H89.7181C89.3604 39.2196 89.0073 39.1433 88.6791 39.0008C88.3509 38.8582 88.0542 38.6522 87.8059 38.3946C87.5577 38.137 87.3628 37.8329 87.2324 37.4997C87.1021 37.1665 87.039 36.8108 87.0466 36.4531C87.0502 36.0958 87.1252 35.7427 87.267 35.4147C87.4088 35.0867 87.6146 34.7903 87.8724 34.5428C88.1931 34.2341 88.5845 34.0087 89.0124 33.8864C89.4404 33.7641 89.8918 33.7486 90.3271 33.8413C90.7625 33.934 91.1684 34.132 91.5095 34.418C91.8505 34.704 92.1161 35.0693 92.2832 35.4819C92.4502 35.8944 92.5136 36.3417 92.4676 36.7844C92.4217 37.2271 92.2679 37.6518 92.0196 38.0212C91.7714 38.3907 91.4364 38.6936 91.0439 38.9035C90.6514 39.1134 90.2134 39.2239 89.7684 39.2252ZM89.7684 37.4872C90.0268 37.4873 90.2749 37.3856 90.459 37.2042C90.6431 37.0228 90.7484 36.7762 90.7522 36.5177C90.7581 36.3858 90.7369 36.254 90.6899 36.1305C90.643 36.007 90.5713 35.8944 90.4793 35.7996C90.3875 35.7017 90.2761 35.6242 90.1524 35.5723C90.0287 35.5203 89.8953 35.495 89.7612 35.498C89.6293 35.4934 89.4979 35.5151 89.3746 35.562C89.2513 35.6089 89.1385 35.6799 89.043 35.7709C88.8938 35.9093 88.7907 36.0903 88.748 36.2894C88.7052 36.4884 88.7248 36.6958 88.804 36.8833C88.8833 37.0708 89.0184 37.2294 89.1909 37.3375C89.3634 37.4455 89.565 37.4978 89.7684 37.4872Z" fill="white" stroke="white" stroke-miterlimit="10"/>
<path d="M82.0913 34.3131C81.7246 34.3073 81.3679 34.1929 81.0663 33.9842C80.7647 33.7756 80.5318 33.4821 80.3971 33.141C80.2624 32.8 80.2319 32.4265 80.3096 32.0681C80.3873 31.7097 80.5695 31.3824 80.8333 31.1277C81.0972 30.8729 81.4306 30.7022 81.7916 30.6371C82.1525 30.572 82.5246 30.6155 82.8608 30.762C83.1969 30.9086 83.4821 31.1516 83.6801 31.4603C83.878 31.769 83.9799 32.1295 83.9729 32.4962C83.9691 32.7392 83.9175 32.979 83.8208 33.202C83.7241 33.425 83.5843 33.6266 83.4095 33.7955C83.2347 33.9643 83.0283 34.0969 82.802 34.1857C82.5758 34.2746 82.3343 34.3178 82.0913 34.3131Z" fill="white" stroke="white" stroke-miterlimit="10"/>
<path d="M82.1201 35.1892H82.0698C81.7125 35.1855 81.3595 35.1106 81.0314 34.9688C80.7034 34.827 80.407 34.6211 80.1596 34.3633C79.6607 33.8413 79.3876 33.1437 79.3997 32.4218C79.4118 31.6999 79.7081 31.0118 80.2242 30.5068C80.7496 30.0102 81.4474 29.7373 82.1704 29.7456C82.5284 29.7503 82.8819 29.8259 83.2105 29.9681C83.5391 30.1103 83.8362 30.3162 84.0847 30.574C84.3331 30.8319 84.528 31.1364 84.658 31.47C84.7879 31.8036 84.8504 32.1597 84.8419 32.5177C84.839 32.8734 84.7651 33.225 84.6245 33.5518C84.4839 33.8786 84.2795 34.174 84.0232 34.4207C83.5138 34.9161 82.8306 35.1919 82.1201 35.1892ZM82.1201 33.4512C82.2493 33.4531 82.3776 33.4296 82.4977 33.3819C82.6178 33.3342 82.7273 33.2633 82.82 33.1733C82.9127 33.0832 82.9868 32.9758 83.0379 32.8572C83.0891 32.7385 83.1164 32.611 83.1183 32.4817C83.1242 32.3498 83.103 32.218 83.056 32.0945C83.0091 31.971 82.9374 31.8584 82.8454 31.7636C82.7103 31.6224 82.5363 31.5246 82.3454 31.4826C82.1545 31.4407 81.9555 31.4566 81.7737 31.5283C81.5918 31.5999 81.4355 31.7241 81.3245 31.8849C81.2135 32.0458 81.153 32.2361 81.1506 32.4315C81.1464 32.5633 81.1683 32.6946 81.2152 32.8179C81.262 32.9411 81.3328 33.0539 81.4235 33.1496C81.5167 33.2452 81.6285 33.3206 81.7521 33.3712C81.8756 33.4219 82.0082 33.4467 82.1416 33.4441L82.1201 33.4512Z" fill="white" stroke="white" stroke-miterlimit="10"/>
<path d="M90.7235 55.0316C90.3588 55.0188 90.0061 54.8987 89.7094 54.6862C89.4128 54.4738 89.1855 54.1785 89.056 53.8373C88.9266 53.4962 88.9007 53.1244 88.9817 52.7687C89.0627 52.4129 89.2469 52.089 89.5113 51.8375C89.7756 51.586 90.1083 51.4182 90.4677 51.355C90.8271 51.2919 91.1971 51.3363 91.5313 51.4826C91.8655 51.6289 92.1492 51.8706 92.3465 52.1775C92.5439 52.4844 92.6463 52.8427 92.6409 53.2075C92.6363 53.4536 92.5828 53.6964 92.4837 53.9217C92.3845 54.147 92.2416 54.3504 92.0633 54.5201C91.8849 54.6898 91.6746 54.8224 91.4446 54.9102C91.2146 54.998 90.9695 55.0392 90.7235 55.0316Z" fill="white" stroke="white" stroke-miterlimit="10"/>
<path d="M90.7594 55.9006H90.7091C90.3516 55.8977 89.9984 55.8231 89.6703 55.6813C89.3421 55.5394 89.0458 55.3332 88.7988 55.0747C88.5492 54.8176 88.3528 54.5137 88.2209 54.1805C88.089 53.8473 88.0242 53.4913 88.0302 53.133C88.0362 52.7747 88.1129 52.4211 88.2559 52.0925C88.3989 51.764 88.6054 51.4668 88.8635 51.2182C89.385 50.7201 90.0813 50.4467 90.8025 50.457C91.5243 50.4627 92.2144 50.755 92.7208 51.2694C93.2272 51.7839 93.5084 52.4785 93.5027 53.2003C93.497 53.9222 93.2048 54.6122 92.6903 55.1186C92.1758 55.625 91.4813 55.9063 90.7594 55.9006ZM90.7594 54.1626C91.0179 54.1627 91.266 54.061 91.4501 53.8796C91.6342 53.6982 91.7395 53.4516 91.7433 53.1931C91.7495 53.0605 91.7278 52.928 91.6795 52.8043C91.6313 52.6806 91.5576 52.5684 91.4632 52.475C91.3725 52.3756 91.2614 52.2971 91.1373 52.245C91.0133 52.193 90.8795 52.1685 90.745 52.1734C90.6131 52.168 90.4814 52.1893 90.358 52.2362C90.2346 52.2832 90.1219 52.3546 90.0269 52.4463C89.9344 52.5372 89.8609 52.6456 89.8108 52.7652C89.7606 52.8848 89.7348 53.0132 89.7348 53.1429C89.7348 53.2726 89.7606 53.401 89.8108 53.5206C89.8609 53.6402 89.9344 53.7486 90.0269 53.8395C90.1187 53.9374 90.2301 54.0148 90.3538 54.0668C90.4775 54.1188 90.6109 54.1441 90.745 54.1411L90.7594 54.1626Z" fill="white" stroke="white" stroke-miterlimit="10"/>
<path d="M83.068 50.9884C82.7017 50.9813 82.3457 50.8656 82.045 50.6561C81.7444 50.4467 81.5126 50.1527 81.379 49.8115C81.2454 49.4703 81.216 49.0972 81.2944 48.7393C81.3729 48.3813 81.5557 48.0547 81.8198 47.8007C82.0838 47.5466 82.4173 47.3766 82.778 47.3121C83.1387 47.2476 83.5104 47.2914 83.8462 47.4382C84.182 47.5849 84.4667 47.8279 84.6644 48.1364C84.862 48.4449 84.9638 48.8052 84.9568 49.1715C84.953 49.4151 84.9011 49.6556 84.804 49.879C84.7069 50.1025 84.5665 50.3045 84.3909 50.4734C84.2153 50.6423 84.008 50.7748 83.781 50.8632C83.5539 50.9516 83.3116 50.9941 83.068 50.9884Z" fill="white" stroke="white" stroke-miterlimit="10"/>
<path d="M83.104 51.8646H83.0537C82.3169 51.8579 81.6127 51.5597 81.0953 51.0352C80.5778 50.5107 80.2891 49.8025 80.2924 49.0657C80.2958 48.3289 80.5908 47.6234 81.113 47.1035C81.6352 46.5837 82.342 46.2919 83.0788 46.2919C83.8156 46.2919 84.5225 46.5837 85.0447 47.1035C85.5668 47.6234 85.8619 48.3289 85.8652 49.0657C85.8685 49.8025 85.5799 50.5107 85.0624 51.0352C84.5449 51.5597 83.8408 51.8579 83.104 51.8646ZM83.104 48.1518C82.9754 48.1499 82.8478 48.1735 82.7285 48.2214C82.6093 48.2693 82.5007 48.3404 82.4091 48.4306C82.3176 48.5208 82.2449 48.6283 82.1953 48.7469C82.1456 48.8655 82.1201 48.9927 82.1201 49.1213C82.1159 49.2531 82.1379 49.3844 82.1847 49.5076C82.2315 49.6309 82.3023 49.7437 82.393 49.8394C82.4862 49.935 82.598 50.0104 82.7216 50.061C82.8451 50.1117 82.9777 50.1364 83.1111 50.1338C83.2434 50.1419 83.3758 50.1217 83.4996 50.0747C83.6234 50.0276 83.7358 49.9548 83.8293 49.8609C83.9272 49.7692 84.0047 49.6578 84.0566 49.534C84.1086 49.4103 84.1339 49.277 84.1309 49.1428C84.1338 49.013 84.1109 48.8839 84.0636 48.763C84.0164 48.6421 83.9456 48.5317 83.8555 48.4382C83.7654 48.3448 83.6577 48.2701 83.5385 48.2184C83.4194 48.1668 83.2912 48.1393 83.1614 48.1374L83.104 48.1518Z" fill="white" stroke="white" stroke-miterlimit="10"/>
<path d="M75.4054 46.9524C75.037 46.9481 74.6781 46.8344 74.3744 46.6258C74.0707 46.4172 73.8357 46.1232 73.6994 45.7808C73.563 45.4385 73.5314 45.0634 73.6085 44.7031C73.6857 44.3428 73.8681 44.0136 74.1327 43.7571C74.3972 43.5006 74.732 43.3285 75.0945 43.2626C75.457 43.1966 75.8309 43.2399 76.1689 43.3868C76.5068 43.5336 76.7934 43.7776 76.9925 44.0877C77.1916 44.3977 77.2941 44.7599 77.287 45.1283C77.2832 45.3716 77.2316 45.6119 77.135 45.8352C77.0384 46.0586 76.8988 46.2607 76.7241 46.4301C76.5493 46.5995 76.3429 46.7328 76.1167 46.8224C75.8904 46.9121 75.6488 46.9562 75.4054 46.9524Z" fill="white" stroke="white" stroke-miterlimit="10"/>
<path d="M75.4485 47.8214H75.4054C74.8652 47.8142 74.3392 47.6468 73.8941 47.3403C73.4491 47.0339 73.1051 46.6023 72.9056 46.1001C72.7061 45.598 72.6602 45.0479 72.7737 44.5196C72.8871 43.9914 73.1548 43.5087 73.5429 43.1327C73.931 42.7567 74.4219 42.5044 74.9535 42.4077C75.4851 42.3111 76.0334 42.3744 76.529 42.5896C77.0246 42.8049 77.4451 43.1625 77.7373 43.617C78.0295 44.0715 78.1802 44.6025 78.1703 45.1427C78.1674 45.5002 78.0929 45.8534 77.951 46.1816C77.8092 46.5097 77.6029 46.806 77.3444 47.053C76.8364 47.5459 76.1564 47.8215 75.4485 47.8214ZM75.4485 44.1086C75.2548 44.1087 75.0653 44.1656 74.9036 44.2723C74.7418 44.379 74.6149 44.5307 74.5385 44.7087C74.4621 44.8868 74.4395 45.0833 74.4736 45.274C74.5077 45.4648 74.597 45.6413 74.7304 45.7818C74.8242 45.877 74.936 45.9527 75.0593 46.0045C75.1825 46.0562 75.3148 46.0831 75.4485 46.0835C75.5814 46.092 75.7146 46.0714 75.8386 46.023C75.9627 45.9746 76.0747 45.8997 76.1667 45.8034C76.2653 45.7122 76.3433 45.6009 76.3953 45.477C76.4473 45.3531 76.4722 45.2195 76.4683 45.0852C76.4737 44.9533 76.4523 44.8216 76.4054 44.6982C76.3585 44.5748 76.2871 44.4621 76.1954 44.3671C76.1025 44.2706 75.9909 44.1941 75.8674 44.1422C75.7439 44.0903 75.6112 44.0642 75.4772 44.0655L75.4485 44.1086Z" fill="white" stroke="white" stroke-miterlimit="10"/>
<path d="M21.4798 82.5869C22.0418 82.8536 22.5119 83.2814 22.8303 83.8159C23.1487 84.3504 23.301 84.9675 23.268 85.5887C23.2904 85.9672 23.2271 86.3458 23.0829 86.6965C22.9386 87.0471 22.7171 87.3607 22.4349 87.6139C21.8283 88.1078 21.0621 88.3632 20.2805 88.332C19.7465 88.3504 19.2162 88.2369 18.7365 88.0017C18.8825 87.439 18.9525 86.8594 18.9447 86.2781C18.9859 85.6166 18.8011 84.9608 18.4205 84.4181C18.2175 84.1843 17.962 84.0018 17.6749 83.8857C17.3878 83.7696 17.0772 83.7232 16.7688 83.7503C16.2 83.7188 15.6413 83.9093 15.2104 84.2817C15.0108 84.4781 14.8557 84.7149 14.7553 84.9763C14.655 85.2377 14.6118 85.5175 14.6287 85.797C14.6194 86.4378 14.8047 87.0663 15.1601 87.5995C15.5216 88.125 15.971 88.5842 16.4887 88.9568C17.0129 89.3303 17.7311 89.7899 18.6431 90.3213C19.5401 90.8444 20.4102 91.4125 21.25 92.0233C21.9276 92.5361 22.5026 93.172 22.9448 93.8977C23.4359 94.7139 23.6849 95.6528 23.663 96.6051C23.7119 97.4644 23.5434 98.3222 23.1732 99.0991C22.8029 99.8761 22.2427 100.547 21.5444 101.05C19.9468 102.118 18.0493 102.647 16.1296 102.559C14.5267 102.607 12.9356 102.27 11.4904 101.575C10.8893 101.295 10.3856 100.842 10.0439 100.274C9.70223 99.7055 9.53821 99.0482 9.57292 98.3861C9.55759 97.9926 9.62583 97.6004 9.77313 97.2352C9.92044 96.87 10.1435 96.5402 10.4275 96.2676C11.0108 95.7248 11.7856 95.4355 12.582 95.4632C13.1187 95.4394 13.6527 95.5531 14.1332 95.7936C14.0045 96.3107 13.9346 96.8407 13.9249 97.3735C13.9249 99.4346 14.7723 100.469 16.4815 100.469C17.1882 100.5 17.8798 100.258 18.4133 99.7937C18.6567 99.5648 18.847 99.2856 18.9711 98.9755C19.0951 98.6653 19.1499 98.3318 19.1315 97.9983C19.1419 97.3563 18.9538 96.7268 18.5928 96.1957C18.2312 95.664 17.7791 95.1997 17.2571 94.8241C16.7185 94.4363 16.0075 93.9767 15.1026 93.4452C14.2078 92.9222 13.3402 92.3542 12.503 91.7432C11.8217 91.2344 11.246 90.5977 10.8081 89.8689C10.3201 89.0619 10.0711 88.133 10.09 87.1902C10.0597 86.1103 10.3964 85.0521 11.0451 84.1883C11.7181 83.3298 12.619 82.6778 13.6448 82.3068C14.7481 81.8683 15.9263 81.6488 17.1135 81.6604C18.6221 81.6151 20.1196 81.9328 21.4798 82.5869Z" fill="white"/>
<path d="M37.8033 88.2387C39.0026 89.675 39.6058 91.6068 39.6058 94.1059C39.6058 96.6051 39.0026 98.738 37.7889 100.268C36.5752 101.797 34.7942 102.559 32.4315 102.559C30.0688 102.559 28.3022 101.84 27.0741 100.354C25.7682 98.6532 25.1135 96.5415 25.2285 94.4004C25.2285 91.8653 25.8389 89.8473 27.0598 88.3608C28.2806 86.8742 30.0688 86.1273 32.4315 86.1273C34.7942 86.1273 36.6255 86.8311 37.8033 88.2387ZM34.428 98.9534C34.7577 97.4079 34.9071 95.8295 34.8732 94.2496C34.9058 92.7228 34.7465 91.198 34.3992 89.7109C34.0761 88.5116 33.4226 87.9155 32.4315 87.9155C31.4405 87.9155 30.787 88.5187 30.471 89.7324C30.1184 91.2114 29.9567 92.7295 29.9898 94.2496C29.9543 95.8299 30.1062 97.4088 30.4422 98.9534C30.7367 100.167 31.4046 100.77 32.4315 100.77C33.4585 100.77 34.1263 100.167 34.428 98.9534Z" fill="white"/>
<path d="M47.0171 89.8904C46.7936 91.0133 46.6925 92.157 46.7155 93.3016V101.919H42.1624V86.7234L45.8824 86.3643L46.0907 89.043C46.3681 88.1795 46.9109 87.4256 47.6419 86.8886C48.3788 86.3642 49.2655 86.0922 50.1698 86.113C50.6606 86.0867 51.1518 86.159 51.6143 86.3255C52.0768 86.492 52.5013 86.7494 52.8628 87.0825C53.2098 87.434 53.4782 87.8552 53.6503 88.3182C53.8223 88.7813 53.8942 89.2755 53.861 89.7683C53.894 90.1574 53.8474 90.5491 53.7239 90.9195C53.6004 91.29 53.4027 91.6313 53.1429 91.9228C52.8514 92.1826 52.5101 92.3803 52.1396 92.5038C51.7692 92.6273 51.3775 92.6739 50.9884 92.6409C50.7276 92.6334 50.468 92.6021 50.2128 92.5476C49.9813 92.5134 49.759 92.4328 49.5593 92.3106C49.7093 91.8076 49.7796 91.2842 49.7676 90.7594C49.7676 89.3231 49.3008 88.6049 48.3744 88.6049C47.6706 88.569 47.211 89.0071 47.0171 89.8904Z" fill="white"/>
<path d="M53.8035 88.0591V87.1399C54.8108 86.747 55.7736 86.2487 56.6761 85.6533C57.5626 85.0856 58.3713 84.4048 59.0819 83.6282H60.3674V86.7234H63.1035V88.0591H60.3243V98.659C60.2896 99.1617 60.4099 99.6631 60.669 100.095C60.9441 100.447 61.3465 100.677 61.7893 100.734C61.5824 101.259 61.1884 101.689 60.6834 101.941C60.1354 102.232 59.5228 102.38 58.9024 102.372C58.4757 102.403 58.0472 102.345 57.6441 102.202C57.241 102.058 56.8722 101.833 56.5612 101.539C55.9966 100.866 55.7135 100.002 55.7713 99.1258V88.0591H53.8035Z" fill="white"/>
<path d="M76.5114 98.7164C76.5247 99.4889 76.2362 100.236 75.7071 100.799C75.1329 101.397 74.4236 101.847 73.6388 102.113C72.801 102.407 71.9197 102.558 71.0319 102.559C68.6381 102.559 66.8379 101.84 65.6314 100.404C64.4106 98.9678 63.8002 96.9713 63.8002 94.4506C63.8002 91.9299 64.4609 89.7683 65.7823 88.332C67.1036 86.8957 69.0067 86.1273 71.5274 86.1273C72.9376 86.073 74.33 86.4568 75.5132 87.2261C76.0304 87.5885 76.4469 88.0767 76.7233 88.6446C76.9997 89.2125 77.1269 89.8414 77.0931 90.4721C77.0931 92.2387 76.4611 93.4596 75.2115 94.1347C73.6151 94.8837 71.8598 95.2313 70.0983 95.1472C69.57 95.1581 69.0417 95.1269 68.5184 95.0539C68.5087 96.2138 68.7849 97.3583 69.3227 98.3861C69.5835 98.8012 69.9548 99.1354 70.395 99.351C70.8352 99.5667 71.3269 99.6553 71.8147 99.6069C72.6324 99.616 73.4378 99.4079 74.1487 99.0037C74.8505 98.5955 75.4154 97.9881 75.7717 97.2586C76.0286 97.3975 76.237 97.6115 76.3692 97.872C76.5013 98.1325 76.5509 98.427 76.5114 98.7164ZM69.0857 89.6247C68.696 90.9443 68.5001 92.3135 68.504 93.6894H69.1001C70.1107 93.7746 71.121 93.522 71.9727 92.9713C72.3145 92.6707 72.58 92.2933 72.7473 91.87C72.9146 91.4467 72.9789 90.9897 72.935 90.5367C72.9583 89.87 72.7994 89.2096 72.4754 88.6265C72.3358 88.3883 72.1332 88.1932 71.89 88.0627C71.6467 87.9322 71.3722 87.8713 71.0965 87.8868C70.1127 87.8868 69.452 88.4613 69.0857 89.6247Z" fill="white"/>
<path d="M86.3643 102.077C85.6035 102.408 84.7808 102.572 83.9514 102.559C82.5646 102.601 81.2029 102.182 80.0806 101.366C79.5683 100.986 79.1566 100.486 78.8813 99.9104C78.606 99.3347 78.4753 98.7006 78.5006 98.0629C78.4511 97.2303 78.6785 96.4046 79.1475 95.7148C79.6165 95.025 80.3006 94.5098 81.0931 94.2496C83.1874 93.5204 85.3972 93.1797 87.6139 93.2442V90.6517C87.6551 89.9131 87.5222 89.1751 87.2261 88.4972C87.0677 88.2443 86.8401 88.0422 86.5702 87.9149C86.3003 87.7876 85.9995 87.7404 85.7036 87.7791C85.3964 87.7604 85.0887 87.8078 84.8013 87.918C84.5139 88.0283 84.2535 88.1988 84.0375 88.4182C83.6211 88.9012 83.4075 89.5265 83.4415 90.1633C83.4624 90.6461 83.5225 91.1265 83.621 91.5996C83.4324 91.7216 83.219 91.8001 82.9962 91.8294C82.7404 91.8767 82.4808 91.9008 82.2206 91.9012C81.5029 91.9294 80.7952 91.7254 80.2026 91.3195C79.9383 91.1295 79.726 90.8759 79.5854 90.5822C79.4449 90.2885 79.3805 89.9642 79.3983 89.6391C79.3983 88.5044 80.0375 87.6402 81.3158 87.0466C82.7645 86.4179 84.3332 86.114 85.9119 86.1561C88.0663 86.1561 89.6319 86.5869 90.6445 87.4344C91.6571 88.2818 92.167 89.7252 92.167 91.7432V98.9247C92.1575 99.4116 92.2278 99.8968 92.3752 100.361C92.5182 100.784 92.7651 101.164 93.0934 101.467C92.8379 101.768 92.5014 101.99 92.1239 102.106C91.7081 102.251 91.2714 102.326 90.8312 102.329C90.1843 102.35 89.5445 102.188 88.9856 101.862C88.4943 101.564 88.1329 101.092 87.973 100.541C87.6381 101.229 87.0673 101.774 86.3643 102.077ZM87.0825 99.5495C87.4693 98.839 87.6601 98.0384 87.6355 97.2299V94.7307C84.6958 94.7307 83.226 95.8008 83.226 97.9409C83.1976 98.6007 83.3924 99.2509 83.779 99.7865C83.9668 100.026 84.21 100.217 84.4877 100.342C84.7654 100.467 85.0693 100.523 85.3733 100.505C85.7157 100.519 86.0551 100.436 86.3533 100.268C86.6515 100.099 86.8966 99.8502 87.0609 99.5495H87.0825Z" fill="white"/>
<path d="M108.893 100.383C109.036 100.806 109.282 101.186 109.611 101.488C109.355 101.79 109.019 102.012 108.641 102.128C108.226 102.272 107.789 102.348 107.349 102.35C106.702 102.372 106.062 102.21 105.503 101.883C105.012 101.586 104.65 101.114 104.49 100.562C104.128 101.226 103.558 101.753 102.867 102.063C102.126 102.402 101.319 102.571 100.505 102.559C99.6249 102.623 98.7446 102.442 97.9621 102.035C97.1795 101.628 96.5257 101.011 96.0737 100.253C95.0845 98.412 94.6106 96.3378 94.702 94.2496C94.702 91.693 95.3173 89.6989 96.5477 88.2674C97.7757 86.8311 99.6213 86.113 102.085 86.113C102.777 86.0986 103.468 86.1784 104.138 86.3499V81.0572L108.692 80.576V98.9103C108.676 99.4089 108.744 99.9065 108.893 100.383ZM101.977 87.9155C101.485 87.901 101.005 88.0667 100.627 88.3815C100.248 88.6962 99.9981 89.1384 99.923 89.6247C99.5702 91.0914 99.4108 92.5979 99.449 94.1059C99.4178 95.624 99.582 97.1397 99.9373 98.6159C100.268 99.8152 100.936 100.411 101.948 100.411C102.283 100.425 102.615 100.343 102.904 100.175C103.194 100.007 103.431 99.7603 103.586 99.4633C103.964 98.7475 104.149 97.9457 104.124 97.1365V88.6265C103.501 88.1698 102.75 87.921 101.977 87.9155Z" fill="white"/>
<path d="M124.053 88.2387C125.252 89.675 125.855 91.6068 125.855 94.1059C125.855 96.6051 125.252 98.738 124.038 100.268C122.825 101.797 121.044 102.559 118.681 102.559C116.318 102.559 114.552 101.84 113.324 100.354C112.018 98.6532 111.363 96.5415 111.478 94.4004C111.478 91.8653 112.088 89.8473 113.309 88.3608C114.53 86.8742 116.318 86.1273 118.681 86.1273C121.044 86.1273 122.853 86.8311 124.053 88.2387ZM120.649 98.9534C120.978 97.4079 121.128 95.8295 121.094 94.2496C121.126 92.7228 120.967 91.198 120.62 89.7109C120.297 88.5116 119.643 87.9155 118.652 87.9155C117.661 87.9155 117.008 88.5187 116.692 89.7324C116.339 91.2114 116.177 92.7295 116.21 94.2496C116.177 95.8295 116.326 97.4079 116.656 98.9534C116.957 100.167 117.618 100.77 118.652 100.77C119.686 100.77 120.376 100.167 120.649 98.9534Z" fill="white"/>
<path d="M133.266 89.8904C133.043 91.0133 132.942 92.157 132.965 93.3016V101.919H128.412V86.7234L132.132 86.3643L132.34 89.043C132.618 88.1795 133.16 87.4256 133.891 86.8886C134.628 86.3642 135.515 86.0922 136.419 86.113C136.91 86.0867 137.401 86.159 137.864 86.3255C138.326 86.492 138.751 86.7494 139.112 87.0825C139.459 87.434 139.728 87.8552 139.9 88.3182C140.072 88.7813 140.144 89.2755 140.11 89.7683C140.143 90.1574 140.097 90.5491 139.973 90.9195C139.85 91.29 139.652 91.6313 139.392 91.9228C139.106 92.1772 138.772 92.3718 138.409 92.4951C138.047 92.6184 137.663 92.668 137.281 92.6409C137.02 92.6334 136.76 92.6021 136.505 92.5476C136.273 92.5148 136.051 92.4341 135.852 92.3106C135.999 91.8069 136.069 91.284 136.06 90.7594C136.06 89.3231 135.593 88.6049 134.66 88.6049C133.92 88.569 133.46 89.0071 133.266 89.8904Z" fill="white"/>
<path d="M160.197 100.383C160.343 100.804 160.59 101.183 160.915 101.488C160.658 101.788 160.322 102.01 159.946 102.128C159.53 102.272 159.093 102.348 158.653 102.35C158.006 102.372 157.366 102.21 156.807 101.883C156.316 101.586 155.955 101.114 155.795 100.562C155.43 101.225 154.861 101.751 154.172 102.063C153.431 102.401 152.624 102.57 151.809 102.559C150.928 102.624 150.047 102.443 149.263 102.036C148.479 101.628 147.824 101.011 147.371 100.253C146.388 98.41 145.916 96.3368 146.006 94.2496C146.006 91.693 146.619 89.6989 147.845 88.2674C149.08 86.8311 150.926 86.113 153.382 86.113C154.074 86.0977 154.765 86.1775 155.436 86.3499V81.0572L159.989 80.576V98.9103C159.979 99.409 160.049 99.9061 160.197 100.383ZM153.296 87.9155C152.803 87.8994 152.322 88.0646 151.944 88.3796C151.565 88.6947 151.315 89.1377 151.242 89.6247C150.6 92.5874 150.6 95.6532 151.242 98.6159C151.572 99.8152 152.24 100.411 153.253 100.411C153.587 100.425 153.919 100.343 154.209 100.175C154.499 100.007 154.735 99.7603 154.89 99.4633C155.263 98.7457 155.446 97.9447 155.421 97.1365V88.6265C154.805 88.1727 154.061 87.924 153.296 87.9155Z" fill="white"/>
<path d="M175.501 98.7164C175.514 99.4889 175.225 100.236 174.696 100.799C174.122 101.397 173.413 101.847 172.628 102.113C171.79 102.407 170.909 102.558 170.021 102.559C167.637 102.559 165.842 101.84 164.621 100.404C163.4 98.9678 162.789 96.9713 162.789 94.4506C162.789 91.9299 163.45 89.8186 164.764 88.3536C166.079 86.8886 167.996 86.1489 170.51 86.1489C171.922 86.0935 173.317 86.4774 174.502 87.2476C175.019 87.6104 175.434 88.0989 175.71 88.6668C175.985 89.2348 176.111 89.8635 176.075 90.4936C176.075 92.2603 175.45 93.4811 174.201 94.1562C172.602 94.9053 170.844 95.2529 169.08 95.1688C168.555 95.1797 168.029 95.1484 167.508 95.0754C167.501 96.239 167.782 97.3862 168.326 98.4148C168.583 98.8233 168.947 99.153 169.38 99.3672C169.812 99.5814 170.295 99.6718 170.775 99.6285C171.595 99.6378 172.403 99.4297 173.116 99.0252C173.818 98.617 174.383 98.0097 174.739 97.2801C174.997 97.4146 175.207 97.6238 175.343 97.8802C175.479 98.1366 175.534 98.4281 175.501 98.7164ZM168.046 89.6247C167.656 90.9439 167.462 92.3136 167.472 93.6894H168.061C169.071 93.7757 170.082 93.523 170.933 92.9713C171.28 92.6741 171.549 92.2973 171.718 91.8733C171.887 91.4493 171.95 90.9907 171.903 90.5367C171.926 89.87 171.767 89.2096 171.443 88.6265C171.307 88.3818 171.105 88.1802 170.86 88.0444C170.615 87.9086 170.337 87.8441 170.057 87.858C169.095 87.8868 168.434 88.4613 168.046 89.6247Z" fill="white"/>
<path d="M19.2894 115.5L23.8712 133.403H19.2894L18.2553 128.979H13.2283L12.2085 133.403H8.94812L13.889 115.5H19.2894ZM13.7525 126.839H17.767L15.7346 118.157L13.7525 126.839Z" fill="white"/>
<path d="M25.4152 119.564L28.8049 119.241L28.9988 121.683C29.6786 119.911 31.0982 119.026 33.2574 119.026C34.1351 118.984 35.0072 119.186 35.7781 119.607C36.4391 120.015 36.9448 120.632 37.2144 121.36C37.9325 119.799 39.2515 119.021 41.1714 119.026C42.7297 119.026 43.8285 119.449 44.482 120.297C45.2106 121.435 45.5531 122.777 45.4587 124.125V130.703C45.4512 131.153 45.5142 131.601 45.6454 132.031C45.7755 132.416 46.0002 132.762 46.2989 133.037C46.0579 133.315 45.7409 133.517 45.3869 133.618C44.9985 133.751 44.5909 133.819 44.1804 133.819C43.7915 133.85 43.4006 133.802 43.0306 133.678C42.6606 133.555 42.319 133.359 42.026 133.101C41.7661 132.81 41.5684 132.469 41.4449 132.098C41.3215 131.728 41.2748 131.336 41.3078 130.947V124.326C41.3396 123.51 41.2377 122.695 41.0062 121.913C40.91 121.639 40.7228 121.406 40.4759 121.253C40.2289 121.1 39.9371 121.036 39.6489 121.072C39.2723 121.053 38.9011 121.168 38.6013 121.397C38.3016 121.626 38.0926 121.954 38.0115 122.322C37.7192 123.361 37.586 124.439 37.6165 125.518V133.417H33.4441V124.34C33.4754 123.52 33.376 122.701 33.1497 121.913C33.0403 121.632 32.8383 121.397 32.577 121.247C32.3158 121.096 32.0111 121.04 31.7134 121.087C31.3265 121.059 30.9418 121.165 30.6239 121.387C30.3061 121.609 30.0745 121.935 29.9683 122.308C29.6544 123.353 29.5113 124.441 29.5446 125.532V133.432H25.4152V119.564Z" fill="white"/>
<path d="M52.4247 113.948C52.6406 114.118 52.813 114.337 52.9278 114.587C53.0427 114.837 53.0967 115.11 53.0854 115.385C53.0951 115.665 53.0344 115.943 52.909 116.194C52.7836 116.445 52.5973 116.66 52.3673 116.821C51.8288 117.174 51.1936 117.349 50.5503 117.324C49.9207 117.349 49.2994 117.173 48.7765 116.821C48.5484 116.667 48.3628 116.458 48.2373 116.213C48.1117 115.968 48.0502 115.696 48.0584 115.42C48.0473 115.134 48.107 114.849 48.2323 114.591C48.3575 114.333 48.5445 114.11 48.7765 113.941C49.3145 113.574 49.9568 113.39 50.6078 113.417C51.2561 113.384 51.8965 113.571 52.4247 113.948ZM52.5683 130.703C52.5598 131.153 52.6253 131.602 52.7622 132.031C52.8894 132.416 53.1117 132.761 53.4086 133.037C53.1703 133.315 52.8557 133.517 52.5037 133.618C52.1151 133.75 51.7076 133.818 51.2972 133.819C50.9084 133.849 50.5177 133.8 50.1478 133.677C49.7779 133.554 49.4362 133.358 49.1428 133.101C48.8829 132.81 48.6852 132.468 48.5618 132.098C48.4383 131.728 48.3916 131.336 48.4246 130.947V119.564H52.5683V130.703Z" fill="white"/>
<path d="M63.0389 136.448C63.4054 135.847 63.6244 135.168 63.6781 134.466C63.7571 133.676 63.8001 132.627 63.8001 131.306V130.466C63.4143 130.973 62.8909 131.36 62.292 131.579C61.6362 131.817 60.9431 131.936 60.2453 131.931C59.5067 131.987 58.7655 131.86 58.0886 131.559C57.4116 131.258 56.8201 130.793 56.3673 130.207C55.4682 128.828 55.0307 127.198 55.1178 125.554C55.1178 123.442 55.6707 121.819 56.7767 120.699C57.8826 119.579 59.4769 119.018 61.5739 119.018C62.6044 119.005 63.628 119.188 64.5901 119.557L67.7643 119.126V130.652C67.8046 132.188 67.6108 133.721 67.1898 135.198C66.8613 136.303 66.1512 137.255 65.1862 137.884C63.9679 138.559 62.5841 138.878 61.1933 138.803C59.927 138.827 58.6728 138.554 57.5307 138.006C57.0525 137.808 56.6448 137.47 56.3606 137.038C56.0763 136.605 55.9286 136.097 55.9364 135.579C55.9165 135.281 55.9718 134.983 56.0973 134.711C56.2228 134.44 56.4144 134.205 56.6546 134.028C57.2037 133.668 57.8517 133.49 58.5074 133.518C58.9507 133.472 59.3973 133.565 59.7857 133.783C59.6859 134.21 59.6258 134.645 59.6062 135.083C59.5743 135.646 59.7282 136.204 60.0442 136.67C60.206 136.871 60.4142 137.028 60.6507 137.13C60.8873 137.231 61.145 137.273 61.4015 137.252C61.7214 137.277 62.042 137.215 62.33 137.073C62.618 136.932 62.8627 136.716 63.0389 136.448ZM61.6601 120.649C61.252 120.627 60.8492 120.749 60.5214 120.993C60.1936 121.236 59.9613 121.587 59.8647 121.984C59.5475 123.093 59.4022 124.243 59.4338 125.396C59.4033 126.515 59.5487 127.632 59.8647 128.706C59.9667 129.09 60.1982 129.427 60.5202 129.66C60.8421 129.893 61.2346 130.008 61.6313 129.984C61.9404 130 62.2471 129.924 62.5138 129.767C62.7805 129.61 62.9954 129.379 63.1323 129.101C63.4664 128.433 63.6316 127.693 63.6134 126.947V121.273C63.0458 120.862 62.3612 120.643 61.6601 120.649Z" fill="white"/>
<path d="M81.6604 120.95C82.7616 122.238 83.3098 124.019 83.305 126.293C83.4101 128.3 82.8247 130.282 81.6461 131.909C81.0561 132.618 80.3066 133.177 79.459 133.54C78.6115 133.903 77.6899 134.06 76.7699 133.999C75.8563 134.059 74.9411 133.909 74.0946 133.561C73.248 133.212 72.4926 132.674 71.8865 131.988C70.691 130.442 70.092 128.518 70.1988 126.566C70.0931 124.591 70.6854 122.641 71.8721 121.058C72.9876 119.703 74.6202 119.026 76.7699 119.026C78.9195 119.026 80.5497 119.667 81.6604 120.95ZM78.5868 130.703C78.8857 129.287 79.0206 127.841 78.9889 126.394C79.0192 125.002 78.8745 123.613 78.558 122.257C78.2708 121.166 77.6675 120.613 76.7699 120.613C75.8722 120.613 75.2618 121.166 74.9745 122.272C74.6596 123.622 74.5149 125.007 74.5436 126.394C74.5119 127.841 74.6469 129.287 74.9458 130.703C75.2187 131.801 75.8291 132.354 76.7699 132.354C77.7106 132.354 78.3139 131.816 78.5868 130.703Z" fill="white"/>
<path d="M100.174 115.794C100.687 116.039 101.115 116.43 101.405 116.918C101.696 117.407 101.834 117.97 101.804 118.537C101.824 118.882 101.765 119.227 101.633 119.546C101.502 119.866 101.3 120.152 101.043 120.383C100.483 120.832 99.7785 121.062 99.0612 121.029C98.5657 121.048 98.0729 120.947 97.6249 120.735C97.7557 120.221 97.8185 119.692 97.8116 119.162C97.8484 118.56 97.6814 117.963 97.3376 117.467C97.1535 117.254 96.9215 117.088 96.6606 116.981C96.3997 116.875 96.1173 116.833 95.8367 116.857C95.3125 116.826 94.797 117.001 94.4004 117.345C94.2192 117.524 94.0786 117.74 93.9881 117.977C93.8977 118.215 93.8595 118.47 93.8761 118.724C93.8643 119.31 94.035 119.884 94.3645 120.369C94.6889 120.85 95.0976 121.268 95.571 121.604C96.0449 121.948 96.7056 122.322 97.5387 122.846C98.3548 123.322 99.1458 123.84 99.9086 124.397C100.527 124.864 101.051 125.444 101.453 126.107C101.897 126.85 102.119 127.704 102.092 128.57C102.141 129.351 101.993 130.131 101.661 130.84C101.33 131.549 100.826 132.164 100.196 132.627C98.7357 133.596 97.0056 134.077 95.255 133.999C93.7887 134.045 92.333 133.737 91.0107 133.101C90.4735 132.844 90.0236 132.435 89.7172 131.924C89.4108 131.413 89.2612 130.824 89.2872 130.229C89.2725 129.871 89.334 129.515 89.4678 129.183C89.6015 128.851 89.8043 128.551 90.0628 128.304C90.5983 127.815 91.3056 127.556 92.0305 127.586C92.5267 127.558 93.0216 127.66 93.4668 127.88C93.3553 128.351 93.2927 128.833 93.2801 129.317C93.2801 131.198 94.0557 132.132 95.6141 132.132C96.257 132.16 96.8865 131.942 97.3735 131.521C97.6073 131.319 97.793 131.067 97.9172 130.784C98.0415 130.5 98.101 130.193 98.0917 129.884C98.1002 129.299 97.9298 128.725 97.6033 128.239C97.2701 127.759 96.8572 127.339 96.3825 126.997C95.8941 126.645 95.2406 126.221 94.4291 125.733C93.4524 125.151 92.6625 124.642 92.052 124.189C91.424 123.712 90.8927 123.12 90.4865 122.444C90.0483 121.706 89.8268 120.86 89.8473 120.002C89.8198 119.016 90.126 118.049 90.7163 117.259C91.3204 116.486 92.1217 115.891 93.0359 115.535C94.042 115.14 95.1149 114.943 96.1958 114.954C97.57 114.912 98.9341 115.201 100.174 115.794Z" fill="white"/>
<path d="M115.176 130.502C115.194 131.203 114.936 131.884 114.458 132.398C113.935 132.942 113.287 133.351 112.57 133.59C111.809 133.861 111.007 134 110.2 133.999C108.031 133.999 106.389 133.338 105.273 132.017C104.087 130.467 103.496 128.543 103.607 126.595C103.607 124.201 104.208 122.346 105.41 121.029C106.611 119.713 108.352 119.045 110.631 119.026C111.919 118.973 113.192 119.325 114.272 120.031C114.742 120.36 115.121 120.804 115.373 121.32C115.624 121.837 115.739 122.409 115.708 122.983C115.708 124.591 115.133 125.704 113.999 126.322C112.541 127.005 110.938 127.32 109.331 127.241C108.851 127.252 108.37 127.225 107.894 127.162C107.878 128.219 108.125 129.263 108.613 130.2C108.846 130.573 109.178 130.875 109.573 131.071C109.967 131.267 110.407 131.351 110.846 131.313C111.601 131.324 112.344 131.133 113 130.76C113.641 130.387 114.155 129.832 114.48 129.166C114.717 129.292 114.911 129.487 115.036 129.725C115.16 129.964 115.209 130.235 115.176 130.502ZM108.44 122.214C108.08 123.414 107.901 124.66 107.909 125.913H108.44C109.349 125.994 110.26 125.775 111.033 125.288C111.348 125.017 111.594 124.674 111.748 124.287C111.902 123.901 111.959 123.483 111.916 123.069C111.936 122.462 111.789 121.861 111.492 121.331C111.372 121.105 111.19 120.917 110.968 120.79C110.745 120.663 110.491 120.602 110.236 120.613C109.345 120.649 108.742 121.151 108.44 122.214Z" fill="white"/>
<path d="M121.367 126.394C121.317 127.622 121.53 128.846 121.992 129.985C122.2 130.421 122.538 130.783 122.96 131.021C123.381 131.258 123.866 131.36 124.347 131.313C125.041 131.333 125.723 131.123 126.286 130.717C126.84 130.288 127.253 129.703 127.471 129.037C127.763 129.125 128.016 129.31 128.189 129.561C128.355 129.814 128.441 130.112 128.433 130.415C128.453 131.124 128.21 131.814 127.751 132.354C127.281 132.908 126.674 133.328 125.992 133.575C125.256 133.858 124.474 134.002 123.686 133.999C121.518 133.999 119.875 133.338 118.76 132.017C117.657 130.395 117.076 128.475 117.094 126.515C117.112 124.554 117.728 122.645 118.86 121.044C120.029 119.698 121.745 119.026 124.01 119.026C125.192 118.981 126.365 119.246 127.414 119.794C127.849 120.039 128.206 120.403 128.444 120.843C128.681 121.282 128.79 121.78 128.757 122.279C128.778 122.576 128.723 122.874 128.598 123.144C128.472 123.414 128.279 123.648 128.038 123.823C127.485 124.186 126.832 124.367 126.171 124.34C125.93 124.34 125.69 124.318 125.453 124.275C125.256 124.246 125.067 124.175 124.9 124.067C124.994 123.649 125.049 123.224 125.065 122.796C125.065 121.36 124.577 120.641 123.629 120.641C122.121 120.646 121.367 122.564 121.367 126.394Z" fill="white"/>
<path d="M135.141 122.458C134.94 123.48 134.848 124.52 134.868 125.561V133.403H130.703V119.564L134.092 119.241L134.286 121.683C134.548 120.897 135.051 120.214 135.723 119.729C136.395 119.25 137.202 118.998 138.028 119.011C138.475 118.994 138.922 119.067 139.341 119.225C139.761 119.383 140.144 119.623 140.47 119.931C140.779 120.245 141.02 120.621 141.177 121.034C141.334 121.447 141.404 121.888 141.382 122.329C141.4 122.686 141.346 123.044 141.222 123.379C141.099 123.715 140.909 124.022 140.663 124.282C140.405 124.519 140.101 124.701 139.77 124.817C139.439 124.933 139.089 124.981 138.739 124.958C138.497 124.953 138.257 124.927 138.021 124.879C137.81 124.845 137.608 124.772 137.425 124.663C137.558 124.196 137.621 123.712 137.611 123.227C137.611 121.913 137.188 121.252 136.34 121.252C135.723 121.252 135.323 121.654 135.141 122.458Z" fill="white"/>
<path d="M153.583 130.502C153.6 131.203 153.343 131.884 152.865 132.398C152.344 132.942 151.698 133.352 150.983 133.59C150.22 133.862 149.416 134 148.606 133.999C146.437 133.999 144.798 133.338 143.687 132.017C142.498 130.468 141.905 128.544 142.014 126.595C142.014 124.201 142.617 122.346 143.823 121.029C145.03 119.713 146.77 119.045 149.044 119.026C150.331 118.973 151.602 119.324 152.678 120.031C153.149 120.36 153.528 120.804 153.779 121.321C154.03 121.837 154.146 122.409 154.114 122.983C154.114 124.591 153.545 125.704 152.405 126.322C150.948 127.005 149.345 127.321 147.737 127.241C147.257 127.252 146.777 127.225 146.301 127.162C146.288 128.218 146.535 129.261 147.019 130.2C147.254 130.573 147.588 130.874 147.983 131.071C148.378 131.267 148.82 131.351 149.26 131.313C150.014 131.325 150.759 131.134 151.414 130.76C152.056 130.389 152.571 129.834 152.893 129.166C153.131 129.291 153.325 129.487 153.448 129.725C153.571 129.964 153.618 130.235 153.583 130.502ZM146.818 122.214C146.462 123.415 146.282 124.661 146.286 125.913H146.832C147.741 125.993 148.652 125.774 149.425 125.288C149.738 125.016 149.982 124.672 150.134 124.285C150.287 123.899 150.344 123.482 150.301 123.069C150.323 122.462 150.179 121.862 149.884 121.331C149.762 121.105 149.579 120.918 149.355 120.791C149.132 120.664 148.877 120.602 148.62 120.613C147.752 120.649 147.155 121.151 146.818 122.214Z" fill="white"/>
<path d="M154.832 120.785V119.93C155.757 119.579 156.639 119.123 157.461 118.573C158.273 118.062 159.012 117.444 159.658 116.735H160.865V119.55H163.357V120.771H160.836V130.43C160.806 130.88 160.914 131.328 161.145 131.715C161.394 132.039 161.76 132.25 162.165 132.304C161.975 132.781 161.618 133.172 161.159 133.403C160.659 133.665 160.101 133.798 159.536 133.791C159.147 133.827 158.754 133.782 158.383 133.659C158.013 133.535 157.671 133.335 157.382 133.073C156.866 132.461 156.609 131.673 156.664 130.875V120.821L154.832 120.785Z" fill="white"/>
<path d="M175.407 120.95C176.58 122.476 177.164 124.372 177.052 126.293C177.157 128.3 176.572 130.282 175.393 131.909C174.297 133.302 172.669 133.999 170.51 133.999C169.596 134.059 168.681 133.909 167.835 133.56C166.988 133.212 166.233 132.674 165.626 131.988C164.436 130.44 163.84 128.516 163.946 126.566C163.842 124.592 164.431 122.644 165.612 121.058C166.725 119.701 168.362 119.026 170.51 119.026C172.657 119.026 174.316 119.665 175.407 120.95ZM172.355 130.703C172.661 129.287 172.798 127.841 172.765 126.394C172.795 125.002 172.65 123.613 172.334 122.257C172.039 121.166 171.443 120.613 170.538 120.613C169.633 120.613 169.037 121.166 168.75 122.272C168.435 123.622 168.29 125.007 168.319 126.394C168.284 127.841 168.419 129.287 168.721 130.703C168.994 131.801 169.598 132.354 170.538 132.354C171.479 132.354 172.061 131.816 172.355 130.703Z" fill="white"/>
</svg>
