<svg width="35" height="34" viewBox="0 0 35 34" fill="none" xmlns="http://www.w3.org/2000/svg">
<path d="M8.04688 26.7689C10.7031 29.3731 13.8542 30.6752 17.5 30.6752C21.1458 30.6752 24.2708 29.3731 26.875 26.7689C29.5312 24.1127 30.8594 20.9616 30.8594 17.3158C30.8594 13.67 29.5312 10.545 26.875 7.9408C24.2708 5.28455 21.1458 3.95642 17.5 3.95642C13.8542 3.95642 10.7031 5.28455 8.04688 7.9408C5.44271 10.545 4.14062 13.67 4.14062 17.3158C4.14062 20.9616 5.44271 24.1127 8.04688 26.7689ZM5.70312 5.59705C8.98438 2.3158 12.9167 0.675171 17.5 0.675171C22.0833 0.675171 25.9896 2.3158 29.2188 5.59705C32.5 8.82621 34.1406 12.7325 34.1406 17.3158C34.1406 21.8991 32.5 25.8314 29.2188 29.1127C25.9896 32.3418 22.0833 33.9564 17.5 33.9564C12.9167 33.9564 8.98438 32.3418 5.70312 29.1127C2.47396 25.8314 0.859375 21.8991 0.859375 17.3158C0.859375 12.7325 2.47396 8.82621 5.70312 5.59705ZM14.1406 24.8158V9.8158L24.1406 17.3158L14.1406 24.8158Z" fill="white"/>
</svg>
